<svg width="63" height="66" viewBox="0 0 63 66" fill="none" xmlns="http://www.w3.org/2000/svg">
<path d="M4.9375 31.5C4.9375 24.4552 7.73604 17.6989 12.7175 12.7175C17.6989 7.73604 24.4552 4.9375 31.5 4.9375C38.5448 4.9375 45.3011 7.73604 50.2825 12.7175C55.264 17.6989 58.0625 24.4552 58.0625 31.5V37.75H51.0312C50.4096 37.75 49.8135 37.9969 49.374 38.4365C48.9344 38.876 48.6875 39.4721 48.6875 40.0938V60.4062C48.6875 61.7 49.7375 62.75 51.0312 62.75H53.375C55.8614 62.75 58.246 61.7623 60.0041 60.0041C61.7623 58.246 62.75 55.8614 62.75 53.375V31.5C62.75 14.2406 48.7594 0.25 31.5 0.25C14.2406 0.25 0.25 14.2406 0.25 31.5V53.375C0.25 55.8614 1.23772 58.246 2.99587 60.0041C4.75403 61.7623 7.1386 62.75 9.625 62.75H11.9688C12.5904 62.75 13.1865 62.5031 13.626 62.0635C14.0656 61.624 14.3125 61.0279 14.3125 60.4062V40.0938C14.3125 39.4721 14.0656 38.876 13.626 38.4365C13.1865 37.9969 12.5904 37.75 11.9688 37.75H4.9375V31.5ZM33.8438 30.7188C33.8438 30.0971 33.5968 29.501 33.1573 29.0615C32.7177 28.6219 32.1216 28.375 31.5 28.375C30.8784 28.375 30.2823 28.6219 29.8427 29.0615C29.4032 29.501 29.1562 30.0971 29.1562 30.7188V63.5312C29.1562 64.1529 29.4032 64.749 29.8427 65.1885C30.2823 65.6281 30.8784 65.875 31.5 65.875C32.1216 65.875 32.7177 65.6281 33.1573 65.1885C33.5968 64.749 33.8438 64.1529 33.8438 63.5312V30.7188ZM21.3438 37.75C21.9654 37.75 22.5615 37.9969 23.001 38.4365C23.4406 38.876 23.6875 39.4721 23.6875 40.0938V54.1562C23.6875 54.7779 23.4406 55.374 23.001 55.8135C22.5615 56.2531 21.9654 56.5 21.3438 56.5C20.7221 56.5 20.126 56.2531 19.6865 55.8135C19.2469 55.374 19 54.7779 19 54.1562V40.0938C19 39.4721 19.2469 38.876 19.6865 38.4365C20.126 37.9969 20.7221 37.75 21.3438 37.75V37.75ZM44 40.0938C44 39.4721 43.7531 38.876 43.3135 38.4365C42.874 37.9969 42.2779 37.75 41.6562 37.75C41.0346 37.75 40.4385 37.9969 39.999 38.4365C39.5594 38.876 39.3125 39.4721 39.3125 40.0938V54.1562C39.3125 54.7779 39.5594 55.374 39.999 55.8135C40.4385 56.2531 41.0346 56.5 41.6562 56.5C42.2779 56.5 42.874 56.2531 43.3135 55.8135C43.7531 55.374 44 54.7779 44 54.1562V40.0938Z" fill="#002B81"/>
</svg>
