<svg width="162" height="162" viewBox="0 0 162 162" fill="none" xmlns="http://www.w3.org/2000/svg">
<circle cx="81" cy="81" r="76.366" stroke="#002B81" stroke-width="9.268"/>
<mask id="path-2-inside-1_502_323" fill="white">
<path fill-rule="evenodd" clip-rule="evenodd" d="M6.11322 81.3057C19.9947 53.7486 48.541 34.8453 81.5024 34.8453C114.464 34.8453 143.01 53.7486 156.892 81.3057C143.01 108.863 114.464 127.766 81.5024 127.766C48.541 127.766 19.9947 108.863 6.11322 81.3057Z"/>
</mask>
<path d="M6.11322 81.3057L-2.16392 77.1362L-4.26426 81.3057L-2.16392 85.4752L6.11322 81.3057ZM156.892 81.3057L165.169 85.4752L167.269 81.3057L165.169 77.1362L156.892 81.3057ZM14.3904 85.4752C26.7583 60.9228 52.1756 44.1133 81.5024 44.1133V25.5773C44.9064 25.5773 13.2311 46.5744 -2.16392 77.1362L14.3904 85.4752ZM81.5024 44.1133C110.829 44.1133 136.246 60.9228 148.614 85.4752L165.169 77.1362C149.774 46.5744 118.098 25.5773 81.5024 25.5773V44.1133ZM148.614 77.1362C136.246 101.688 110.829 118.498 81.5024 118.498V137.034C118.098 137.034 149.774 116.037 165.169 85.4752L148.614 77.1362ZM81.5024 118.498C52.1756 118.498 26.7583 101.688 14.3904 77.1362L-2.16392 85.4752C13.2311 116.037 44.9064 137.034 81.5024 137.034V118.498Z" fill="#002B81" mask="url(#path-2-inside-1_502_323)"/>
<path d="M30.8717 79.4717C31.9389 85.408 34.8804 91.6982 38.5132 91.6982C47.0717 91.6982 44.5694 64.8 51.6566 64.8C62.3972 64.8 60.4594 108.509 68.7736 108.509C78.6747 108.509 73.6364 53.4906 81.3057 53.4906C88.9749 53.4906 90.6891 108.509 98.117 108.509C107.354 108.509 102.703 61.2345 108.517 61.2345C118.206 61.2345 118.981 92.6268 124.407 92.6268C129.833 92.6268 131.77 86.4259 131.77 79.4717" stroke="#002B81" stroke-width="9.268" stroke-linecap="round"/>
</svg>
